<?xml version="1.0" encoding="UTF-8" standalone="no"?>
<svg
   viewBox="0 0 576 512"
   version="1.1"
   id="svg1"
   sodipodi:docname="eye-regular.svg"
   inkscape:version="1.3-alpha (5991b5bb6, 2023-05-07)"
   xmlns:inkscape="http://www.inkscape.org/namespaces/inkscape"
   xmlns:sodipodi="http://sodipodi.sourceforge.net/DTD/sodipodi-0.dtd"
   xmlns="http://www.w3.org/2000/svg"
   xmlns:svg="http://www.w3.org/2000/svg">
  <defs
     id="defs1" />
  <sodipodi:namedview
     id="namedview1"
     pagecolor="#ffffff"
     bordercolor="#000000"
     borderopacity="0.25"
     inkscape:showpageshadow="2"
     inkscape:pageopacity="0.0"
     inkscape:pagecheckerboard="0"
     inkscape:deskcolor="#d1d1d1"
     inkscape:zoom="1.0390625"
     inkscape:cx="280.54135"
     inkscape:cy="256.4812"
     inkscape:window-width="1366"
     inkscape:window-height="705"
     inkscape:window-x="-8"
     inkscape:window-y="-8"
     inkscape:window-maximized="1"
     inkscape:current-layer="svg1" />
  <!--! Font Awesome Pro 6.4.0 by @fontawesome - https://fontawesome.com License - https://fontawesome.com/license (Commercial License) Copyright 2023 Fonticons, Inc. -->
  <path
     d="m 290.40962,102.34157 c -60.51603,0 -110.26541,26.16628 -148.41279,59.84651 -35.73416,31.64705 -60.423212,69.21687 -73.046188,95.73674 12.622976,26.51987 37.312028,64.08969 72.953378,95.73673 38.24019,33.68024 87.98957,59.84651 148.5056,59.84651 60.51602,0 110.2654,-26.16627 148.41277,-59.84651 35.73416,-31.64704 60.42321,-69.21686 73.04618,-95.73673 -12.62297,-26.51987 -37.31202,-64.08969 -72.95336,-95.73674 -38.24019,-33.68023 -87.98957,-59.84651 -148.50559,-59.84651 z m -178.76361,28.81826 c 43.71632,-38.719014 103.76828,-71.250056 178.76361,-71.250056 74.99532,0 135.04727,32.531042 178.7636,71.250056 43.43788,38.45382 72.48929,84.33319 86.31888,115.89184 3.06292,6.98357 3.06292,14.76273 0,21.74629 -13.82959,31.55865 -42.881,77.52643 -86.31888,115.89184 -43.71633,38.71901 -103.76828,71.25006 -178.7636,71.25006 -74.99533,0 -135.04729,-32.53105 -178.76361,-71.25006 -43.437895,-38.36541 -72.489302,-84.33319 -86.226069,-115.89184 -3.062928,-6.98356 -3.062928,-14.76272 0,-21.74629 13.736767,-31.55865 42.788174,-77.52642 86.226069,-115.89184 z m 178.76361,197.48464 c 41.02466,0 74.25279,-31.64704 74.25279,-70.71965 0,-39.07261 -33.22813,-70.71966 -74.25279,-70.71966 -0.64972,0 -1.20661,0 -1.85633,0 1.20661,4.50838 1.85633,9.28196 1.85633,14.14393 0,31.20505 -26.6382,56.57573 -59.40225,56.57573 -5.10487,0 -10.11694,-0.6188 -14.85055,-1.76799 0,0.61879 0,1.14919 0,1.76799 0,39.07261 33.22813,70.71965 74.2528,70.71965 z m 0,-183.8711 a 118.80447,113.15145 0 1 1 0,226.3029 118.80447,113.15145 0 1 1 0,-226.3029 z"
     id="path1"
     style="stroke-width:0.905809;fill:#ffffff" />
</svg>
